<?xml version="1.0" encoding="utf-8"?>
<!-- Generator: Adobe Illustrator 24.1.1, SVG Export Plug-In . SVG Version: 6.00 Build 0)  -->
<svg version="1.1" id="Layer_1" xmlns="http://www.w3.org/2000/svg" xmlns:xlink="http://www.w3.org/1999/xlink" x="0px" y="0px"
	 viewBox="0 0 720 720" style="enable-background:new 0 0 720 720;" xml:space="preserve">
<style type="text/css">
	.st0{fill:url(#SVGID_1_);}
	.st1{stroke:#000000;stroke-width:4;stroke-miterlimit:10;}
</style>
<linearGradient id="SVGID_1_" gradientUnits="userSpaceOnUse" x1="165" y1="302.7258" x2="483.3748" y2="302.7258">
	<stop  offset="0.2542" style="stop-color:#ED1C24"/>
	<stop  offset="0.9581" style="stop-color:#ED1C24"/>
</linearGradient>
<rect x="165" y="274.9" class="st0" width="318.37" height="55.65"/>
<path d="M188.16,285.36c4.84,0,8.19,1.82,10.9,4.67l-4.28,4.07c-1.78-1.74-4.07-2.84-6.62-2.84c-4.54,0-7.47,3.39-7.47,7.68
	c0,4.28,2.93,7.68,7.47,7.68c2.54,0,4.84-1.1,6.62-2.84l4.16,4.07c-2.55,2.67-6.07,4.67-10.77,4.67c-8.06,0-13.79-5.98-13.79-13.57
	C174.38,291.34,180.1,285.36,188.16,285.36z"/>
<path d="M206.65,297.23v-5.73h2.73c0.54-1.98,1.39-3.78,2.78-5.25c-0.36-0.03-0.72-0.05-1.1-0.05h-10.65v25.45h6.24v-9.5l1.1,1.61
	c0.34-2.11,0.48-4.34,0.7-6.53H206.65z"/>
<path d="M221.55,311.66l-6.87-9.46c3.78-0.93,6.02-3.44,6.02-7.89c0-4.46-3.09-7.64-7.94-8.05c-1.39,1.47-2.24,3.27-2.78,5.25h2.11
	c1.4,0,2.5,1.31,2.5,2.8c0,1.48-0.93,2.93-2.33,2.93h-3.21c-0.21,2.19-0.36,4.42-0.7,6.53l5.39,7.89H221.55z"/>
<path d="M233.72,285.36h1.1l12.47,26.3h-6.7l-1.27-2.63h-10.05l-1.23,2.63h-6.7L233.72,285.36z M237.2,304.57l-2.93-6.45h-0.08
	l-2.97,6.45H237.2z"/>
<path d="M259.17,285.36c4.84,0,8.19,1.82,10.9,4.67l-4.28,4.07c-1.78-1.74-4.07-2.84-6.62-2.84c-4.54,0-7.47,3.39-7.47,7.68
	c0,4.28,2.93,7.68,7.47,7.68c2.54,0,4.84-1.1,6.62-2.84l4.16,4.07c-2.55,2.67-6.07,4.67-10.77,4.67c-8.06,0-13.79-5.98-13.79-13.57
	C245.39,291.34,251.11,285.36,259.17,285.36z"/>
<path d="M272.03,286.2h6.24v11.37h0.08l7.34-11.37h6.87l-8.74,12.09l9.2,13.36h-6.87l-7.8-12.34h-0.08v12.34h-6.24V286.2z"/>
<path d="M294.38,286.2h16.84v5.51h-10.6v4.58h9.8v5.43h-9.8v4.58h11.07v5.34h-17.31V286.2z"/>
<path d="M313.64,286.2h8.87c7.51,0,13.32,5.51,13.32,12.68c0,6.79-5.18,12.77-13.32,12.77h-8.87V286.2z M322.38,305.97
	c3.99,0,7.04-2.8,7.04-7.08c0-3.95-2.67-7.04-7.04-7.04h-2.5v14.13H322.38z"/>
<path d="M358.4,310.72c0,1.48,1.19,2.67,2.63,2.67c1.57,0,2.54-0.89,2.54-2.21c0-1.91-2.5-2.46-4.58-3.18
	c-4.28-1.53-6.66-3.52-6.66-7.89c0-4.5,3.86-8.23,8.65-8.23c5.64,0,8.31,3.61,8.65,8.31h-5.85c0-1.44-0.89-2.63-2.63-2.63
	c-1.36,0-2.67,0.81-2.67,2.46c0,1.91,2.33,2.25,4.5,2.88c4.54,1.36,6.66,3.9,6.66,7.89c0,4.5-3.82,8.23-8.61,8.23
	c-5.56,0-8.7-3.73-8.7-8.31H358.4z"/>
<path d="M376.85,298.25h-5.68v-5.51h17.73v5.51h-5.77v19.94h-6.28V298.25z"/>
<path d="M390.72,292.74h6.19v15.95c0,3.39,1.61,4.58,3.78,4.58c2.38,0,3.86-1.19,3.86-4.58v-15.95h6.24v16.88
	c0,6.02-4.5,9.42-10.1,9.42c-5.81,0-9.97-3.56-9.97-9.42V292.74z"/>
<path d="M413.8,292.74h8.87c7.51,0,13.32,5.51,13.32,12.68c0,6.79-5.18,12.77-13.32,12.77h-8.87V292.74z M422.54,312.5
	c3.99,0,7.04-2.8,7.04-7.08c0-3.95-2.67-7.04-7.04-7.04h-2.5v14.13H422.54z"/>
<path d="M439.17,292.74h6.24v25.45h-6.24V292.74z"/>
<path d="M470.75,294.13c-1.43,1.46-2.83,2.97-4.16,4.53c2.37,1.28,3.76,3.82,3.76,6.8c0,4.28-2.88,7.68-7.38,7.68
	c-1.97,0-3.62-0.64-4.86-1.72c-0.54,1.16-1.03,2.35-1.46,3.56c-0.47,0.71-1.05,1.23-1.67,1.68c2.19,1.5,4.91,2.37,7.99,2.37
	c8.02,0,13.7-5.98,13.7-13.57C476.67,300.68,474.41,296.54,470.75,294.13z"/>
<path d="M456.05,314.38c0.43-1.21,0.92-2.4,1.46-3.56c-1.61-1.4-2.52-3.54-2.52-5.96c0-4.28,2.84-7.68,7.38-7.68
	c1.37,0,2.58,0.32,3.62,0.87c1.34-1.56,2.73-3.07,4.16-4.53c-2.16-1.42-4.81-2.24-7.78-2.24c-8.06,0-13.7,5.98-13.7,13.57
	c0,4.7,2.16,8.77,5.71,11.2C455,315.62,455.57,315.09,456.05,314.38z"/>
<line class="st1" x1="357.16" y1="274.9" x2="325.89" y2="330.55"/>
</svg>
